<svg xmlns="http://www.w3.org/2000/svg" width="254.784" height="37.045" viewBox="0 0 254.784 37.045">
  <g id="Grupo_8" data-name="Grupo 8" transform="translate(-76.026 -203.894)">
    <g id="Grupo_4" data-name="Grupo 4">
      <path id="Caminho_7" data-name="Caminho 7"
        d="M111.929,229.064a2.854,2.854,0,0,0,.383,1.666,2.209,2.209,0,0,0,1.177.78l-.76,2.158a4.947,4.947,0,0,1-2.158-.789,3.6,3.6,0,0,1-1.361-1.893,6.454,6.454,0,0,1-2.567,2,8.448,8.448,0,0,1-3.416.679,6.184,6.184,0,0,1-4.517-1.615,5.714,5.714,0,0,1-1.649-4.279,5.18,5.18,0,0,1,2.3-4.54,11.687,11.687,0,0,1,6.656-1.589h2.828v-1.577a3.331,3.331,0,0,0-1.205-2.909,5.669,5.669,0,0,0-3.347-.863,13.213,13.213,0,0,0-2.221.227,17.176,17.176,0,0,0-2.746.754l-.817-2.322a19.962,19.962,0,0,1,3.309-.935,16.578,16.578,0,0,1,2.947-.279,7.62,7.62,0,0,1,5.367,1.669,5.857,5.857,0,0,1,1.795,4.515Zm-7.887,2.264a5.41,5.41,0,0,0,2.676-.716,6.2,6.2,0,0,0,2.129-1.986v-4.877h-2.739q-3.156,0-4.452,1.079a3.572,3.572,0,0,0-1.295,2.892,3.648,3.648,0,0,0,.916,2.693A3.76,3.76,0,0,0,104.042,231.328Z"
        fill="#ff79c6" />
      <path id="Caminho_8" data-name="Caminho 8"
        d="M119.978,233.25V214.158h2.63l.236,2.647a7.594,7.594,0,0,1,2.909-2.276,8.257,8.257,0,0,1,3.4-.788,5.092,5.092,0,0,1,4.089,1.5,6.175,6.175,0,0,1,1.278,4.144V233.25h-3.082V221.611a18.03,18.03,0,0,0-.219-3.14,2.783,2.783,0,0,0-.906-1.749,3.36,3.36,0,0,0-2.121-.553,4.678,4.678,0,0,0-2.095.489,7.26,7.26,0,0,0-1.758,1.218,8.891,8.891,0,0,0-1.278,1.467V233.25Z"
        fill="#ff79c6" />
      <path id="Caminho_9" data-name="Caminho 9"
        d="M156.934,232.289a7.7,7.7,0,0,1-2.385,1.016,10.944,10.944,0,0,1-2.746.363,6.576,6.576,0,0,1-4.759-1.615,5.527,5.527,0,0,1-1.678-4.169V216.532h-4.388v-2.374h4.388v-4.334l3.082-.382v4.716h6.6l-.382,2.374h-6.219v11.314a3.277,3.277,0,0,0,.843,2.432,3.894,3.894,0,0,0,2.8.834,7.276,7.276,0,0,0,1.977-.256,7.7,7.7,0,0,0,1.669-.67Z"
        fill="#ff79c6" />
      <path id="Caminho_10" data-name="Caminho 10"
        d="M170.79,213.741a7.908,7.908,0,0,1,4.523,1.231,7.549,7.549,0,0,1,2.745,3.465,13.628,13.628,0,0,1,.927,5.257,13.237,13.237,0,0,1-.944,5.168,7.91,7.91,0,0,1-2.774,3.528,7.692,7.692,0,0,1-4.515,1.278,7.913,7.913,0,0,1-4.515-1.232,7.619,7.619,0,0,1-2.774-3.473,14.9,14.9,0,0,1,0-10.437,7.459,7.459,0,0,1,7.327-4.785Zm0,2.52a4.215,4.215,0,0,0-3.718,1.822q-1.253,1.821-1.252,5.649a10.122,10.122,0,0,0,1.232,5.593,4.666,4.666,0,0,0,7.4,0,13.474,13.474,0,0,0,.011-11.242A4.131,4.131,0,0,0,170.79,216.261Z"
        fill="#ff79c6" />
      <path id="Caminho_11" data-name="Caminho 11"
        d="M185.255,233.25V214.158h2.63l.236,2.647a7.594,7.594,0,0,1,2.909-2.276,8.261,8.261,0,0,1,3.4-.788,5.094,5.094,0,0,1,4.089,1.5,6.18,6.18,0,0,1,1.277,4.144V233.25h-3.082V221.611a18.145,18.145,0,0,0-.218-3.14,2.779,2.779,0,0,0-.907-1.749,3.357,3.357,0,0,0-2.121-.553,4.677,4.677,0,0,0-2.094.489,7.285,7.285,0,0,0-1.759,1.218,8.836,8.836,0,0,0-1.277,1.467V233.25Z"
        fill="#ff79c6" />
      <path id="Caminho_12" data-name="Caminho 12"
        d="M216.718,214.158v16.664H222.1v2.428H207.74v-2.428h5.893V216.587h-5.711v-2.429Zm-2.449-8.958a2.2,2.2,0,0,1,1.632.616,2.067,2.067,0,0,1,.616,1.522,2.149,2.149,0,0,1-.616,1.56,2.173,2.173,0,0,1-1.632.636,2.132,2.132,0,0,1-1.6-.636,2.16,2.16,0,0,1-.615-1.56,2.078,2.078,0,0,1,.615-1.522A2.159,2.159,0,0,1,214.269,205.2Z"
        fill="#ff79c6" />
      <path id="Caminho_13" data-name="Caminho 13"
        d="M236.067,213.741a7.908,7.908,0,0,1,4.523,1.231,7.544,7.544,0,0,1,2.746,3.465,13.647,13.647,0,0,1,.926,5.257,13.219,13.219,0,0,1-.944,5.168,7.91,7.91,0,0,1-2.774,3.528,7.692,7.692,0,0,1-4.515,1.278,7.912,7.912,0,0,1-4.514-1.232,7.612,7.612,0,0,1-2.774-3.473,14.9,14.9,0,0,1,0-10.437,7.457,7.457,0,0,1,7.326-4.785Zm0,2.52a4.216,4.216,0,0,0-3.718,1.822q-1.251,1.821-1.252,5.649a10.123,10.123,0,0,0,1.232,5.593,4.666,4.666,0,0,0,7.4,0,13.469,13.469,0,0,0,.012-11.242A4.134,4.134,0,0,0,236.067,216.261Z"
        fill="#ff79c6" />
      <path id="Caminho_14" data-name="Caminho 14"
        d="M256.846,213.741a6.864,6.864,0,0,1,3.03.633,6.625,6.625,0,0,1,2.285,1.867l.253-2.083h2.63v26.781l-3.085-.38v-9.7a6.488,6.488,0,0,1-2.42,2.133,6.639,6.639,0,0,1-2.947.679,6.417,6.417,0,0,1-4.106-1.232,6.886,6.886,0,0,1-2.241-3.473,17.9,17.9,0,0,1-.688-5.231,14.709,14.709,0,0,1,.834-5.131,8.006,8.006,0,0,1,2.458-3.554A6.164,6.164,0,0,1,256.846,213.741Zm.762,2.483a3.945,3.945,0,0,0-3.562,1.859,10.647,10.647,0,0,0-1.189,5.649,14.612,14.612,0,0,0,.49,4.106,4.973,4.973,0,0,0,1.459,2.457,3.663,3.663,0,0,0,2.44.817,4.479,4.479,0,0,0,2.756-.88,8.175,8.175,0,0,0,1.957-2.058v-9.518a5.268,5.268,0,0,0-1.867-1.8A4.965,4.965,0,0,0,257.608,216.224Z"
        fill="#ff79c6" />
      <path id="Caminho_15" data-name="Caminho 15"
        d="M284.9,213.741a4.047,4.047,0,0,1,1.776.408,3.093,3.093,0,0,1,1.4,1.548,8.036,8.036,0,0,1,.544,3.338V233.25h-2.866V219.525a10.7,10.7,0,0,0-.219-2.576,1.108,1.108,0,0,0-1.231-.8,3.167,3.167,0,0,0-1.7.527,5.406,5.406,0,0,0-1.623,1.758V233.25h-2.866V219.525a10.7,10.7,0,0,0-.219-2.576q-.216-.8-1.249-.8a3.128,3.128,0,0,0-1.7.527,5.748,5.748,0,0,0-1.623,1.758V233.25H270.48V214.158h2.411l.2,2.193a8.561,8.561,0,0,1,1.75-1.859,3.772,3.772,0,0,1,2.383-.751,4.263,4.263,0,0,1,2.06.526,3.188,3.188,0,0,1,1.421,1.994,7.038,7.038,0,0,1,1.75-1.824A4.141,4.141,0,0,1,284.9,213.741Z"
        fill="#ff79c6" />
    </g>
    <g id="Grupo_7" data-name="Grupo 7">
      <g id="Grupo_5" data-name="Grupo 5">
        <path id="Caminho_16" data-name="Caminho 16"
          d="M89.953,211.709l1.5,2.34-12.8,7.85,12.8,7.907-1.669,2.268-13.763-8.633v-3.119Z" fill="#fefef7" />
      </g>
      <g id="Grupo_6" data-name="Grupo 6">
        <path id="Caminho_17" data-name="Caminho 17" d="M294.815,237.006l-2.5-1.125,15.521-31.987,2.466,1.2Z"
          fill="#fefef7" />
        <path id="Caminho_18" data-name="Caminho 18"
          d="M316.866,211.709l13.944,8.6v3.137l-13.78,8.633-1.652-2.268,12.785-7.907-12.785-7.868Z" fill="#fefef7" />
      </g>
    </g>
  </g>
</svg>